<?xml version="1.0" encoding="utf-8"?>
<!-- Generator: Adobe Illustrator 23.1.0, SVG Export Plug-In . SVG Version: 6.00 Build 0)  -->
<svg version="1.1" id="Layer_1" xmlns="http://www.w3.org/2000/svg" xmlns:xlink="http://www.w3.org/1999/xlink" x="0px" y="0px"
	 viewBox="0 0 200 200" style="enable-background:new 0 0 200 200;" xml:space="preserve">
<style type="text/css">
	.st0{fill:#FFFFFF;}
	.st1{display:none;fill:#4373DB;}
	.st2{fill:#381E1F;}
	.st3{fill:url(#SVGID_1_);}
	.st4{fill:url(#SVGID_2_);}
	.st5{fill:url(#SVGID_3_);}
	.st6{fill:url(#SVGID_4_);}
</style>
<circle class="st0" cx="100.3" cy="100" r="100"/>
<path class="st1" d="M107.4,147.8v-43.6H122l2.2-17h-16.8V76.4c0-4.9,1.4-8.3,8.4-8.3h9V52.9c-1.6-0.2-6.9-0.7-13.1-0.7
	c-12.9,0-21.8,7.9-21.8,22.5v12.5H75.3v17h14.6v43.6L107.4,147.8L107.4,147.8z"/>
<path class="st2" d="M100.3,51.1c-29.5,0-53.5,18.9-53.5,42.3c0,15.2,10.1,28.5,25.4,36c-1.1,4.2-4,15.1-4.6,17.5
	c-0.7,2.9,1.1,2.9,2.2,2.1c0.9-0.6,14.6-9.9,20.6-14c3.2,0.5,6.5,0.7,9.9,0.7c29.5,0,53.5-18.9,53.5-42.3S129.8,51.1,100.3,51.1z"/>
<g>
	<g>
		<g>
			<linearGradient id="SVGID_1_" gradientUnits="userSpaceOnUse" x1="60.9344" y1="94.0343" x2="82.9234" y2="94.0343">
				<stop  offset="0" style="stop-color:#E5DD4A"/>
				<stop  offset="2.374291e-02" style="stop-color:#E5DC47"/>
				<stop  offset="0.1784" style="stop-color:#E4D83C"/>
				<stop  offset="0.3958" style="stop-color:#E4D635"/>
				<stop  offset="1" style="stop-color:#E4D533"/>
			</linearGradient>
			<path class="st3" d="M80.3,81c-3.9,0-16.9,0-16.9,0c-3.3,0-3.3,5.5,0,5.5H69c0,0,0,15.2,0,18.8c0,2.6,5.8,2.6,5.8,0l0-18.7
				c0,0,1.9,0,5.5,0C83.8,86.4,83.8,81,80.3,81z"/>
		</g>
		<g>
			<g>
				<linearGradient id="SVGID_2_" gradientUnits="userSpaceOnUse" x1="78.4368" y1="94.0609" x2="101.4963" y2="94.0609">
					<stop  offset="0" style="stop-color:#E5DD4A"/>
					<stop  offset="2.374291e-02" style="stop-color:#E5DC47"/>
					<stop  offset="0.1784" style="stop-color:#E4D83C"/>
					<stop  offset="0.3958" style="stop-color:#E4D635"/>
					<stop  offset="1" style="stop-color:#E4D533"/>
				</linearGradient>
				<path class="st4" d="M93.4,82.6c-0.8-1.8-5.6-2.6-6.8,0c-1.4,3-6.3,17.3-8,21.1c-1.2,2.7,3.9,5,5.1,2.2l1.1-3.9l10.2,0
					c0,0-0.4,0.2,1,3.7c1.1,2.9,6.4,0.9,5.3-2C99.8,99.6,94.4,84.7,93.4,82.6z M86.7,96.9l3.4-9.7l3.1,9.7H86.7z"/>
			</g>
		</g>
		<g>
			<linearGradient id="SVGID_3_" gradientUnits="userSpaceOnUse" x1="103.2978" y1="94.0265" x2="118.6836" y2="94.0265">
				<stop  offset="0" style="stop-color:#E5DD4A"/>
				<stop  offset="2.374291e-02" style="stop-color:#E5DC47"/>
				<stop  offset="0.1784" style="stop-color:#E4D83C"/>
				<stop  offset="0.3958" style="stop-color:#E4D635"/>
				<stop  offset="1" style="stop-color:#E4D533"/>
			</linearGradient>
			<path class="st5" d="M116.7,101.5c-2.6,0-7.4,0-7.4,0s0-14.4,0-18c0-3.4-6-3.4-6,0c0,4.8,0,20.5,0,20.5s-0.4,3.1,2.2,3.1
				s8.6,0,11.2,0C119.3,107.1,119.3,101.5,116.7,101.5z"/>
		</g>
		<g>
			<linearGradient id="SVGID_4_" gradientUnits="userSpaceOnUse" x1="119.9767" y1="94.0869" x2="139.6826" y2="94.0869">
				<stop  offset="0" style="stop-color:#E5DD4A"/>
				<stop  offset="2.374291e-02" style="stop-color:#E5DC47"/>
				<stop  offset="0.1784" style="stop-color:#E4D83C"/>
				<stop  offset="0.3958" style="stop-color:#E4D635"/>
				<stop  offset="1" style="stop-color:#E4D533"/>
			</linearGradient>
			<path class="st6" d="M139.4,103.1l-7.8-10.3c0,0,5.3-5.7,7.4-7.8c1.2-1.2-2.6-5-3.8-3.8c-1.2,1.2-9.5,9.5-9.5,9.5s0.1-5.2,0-8.1
				c-0.1-2.3-5.7-2.1-5.7,0.2c0.1,2.1-0.1,21.3-0.1,22.8c0,2.2,5.7,2.2,5.7,0c0-2.6,0-7.6,0-7.6l1.7-1.3l7.3,10
				C136.2,108.6,140.9,105,139.4,103.1z"/>
		</g>
	</g>
</g>
</svg>
